Fly_normalized_Motion_pl13
version=1
nRows=10
nColumns=43
inDegrees=yes
endheader
time		pelvis_tilt		pelvis_list		pelvis_rotation		pelvis_tx		pelvis_ty		pelvis_tz		hip_flexion_r		hip_adduction_r		hip_rotation_r		knee_angle_r		ankle_angle_r		subtalar_angle_r		mtp_angle_r		hip_flexion_l		hip_adduction_l		hip_rotation_l		knee_angle_l		ankle_angle_l		subtalar_angle_l		mtp_angle_l		lumbar_extension		lumbar_bending		lumbar_rotation		neck_flexion		neck_lateral_bending		neck_rotation		arm_flex_r		arm_add_r		arm_rot_r		elbow_flex_r		pro_sup_r		wrist_flex_r		wrist_dev_r		hand_finger_flex_r		arm_flex_l		arm_add_l		arm_rot_l		elbow_flex_l		pro_sup_l		wrist_flex_l		wrist_dev_l		hand_finger_flex_l		
0.669167		0.972020		-19.012111		86.942027		0.024488		1.875753		1.198474		57.913655		4.979544		-1.072203		-62.697556		-8.335395		-6.275992		25.398100		62.864357		-9.043004		-5.496130		-66.963739		-7.095077		0.125053		26.120163		-35.860249		-1.303400		0.639279		17.559464		-2.569508		3.262227		60.665166		-14.561572		19.564332		71.541273		114.066802		1.060759		9.043000		29.415847		61.237205		-22.895363		15.003745		76.986386		107.933952		-1.846724		8.835219		21.857611		
0.673687		1.017338		-18.830743		86.895626		0.024173		1.869929		1.189793		57.693790		4.970714		-1.127216		-61.285176		-8.807607		-6.208470		25.252939		62.507173		-9.123714		-5.593744		-65.810323		-7.650805		0.335204		26.099348		-35.992742		-1.268684		0.724574		17.383587		-2.713957		3.286648		58.612889		-14.996730		19.146938		71.198400		113.841171		0.893487		9.036603		29.391954		59.044784		-23.138645		14.341099		77.021348		107.999766		-1.834548		8.762613		21.990251		
0.678207		1.074995		-18.638998		86.839676		0.023860		1.863837		1.181131		57.452499		5.005130		-1.151499		-59.905939		-9.203611		-6.184748		25.118425		62.140128		-9.207168		-5.638834		-64.685523		-8.196257		0.528997		26.074861		-36.120083		-1.225487		0.835742		17.260239		-2.850695		3.317579		56.667677		-15.482294		18.850152		70.727324		113.728331		0.745904		9.069800		29.345859		56.884403		-23.372794		13.702925		76.978195		108.134226		-1.774838		8.731170		22.151782		
0.682727		1.138925		-18.444593		86.796687		0.023518		1.857528		1.172432		57.185052		5.036361		-1.177848		-58.544702		-9.497644		-6.118382		25.001038		61.745187		-9.273834		-5.666406		-63.539519		-8.673371		0.700646		26.049919		-36.243209		-1.176648		0.965227		17.087119		-2.960603		3.338911		54.774983		-16.087398		18.676371		70.240130		113.725268		0.615105		9.126966		29.283020		54.772703		-23.672757		13.221417		76.936226		108.267225		-1.689246		8.730165		22.318346		
0.687247		1.249569		-18.132447		86.756265		0.023248		1.851120		1.163375		56.777369		5.092475		-1.244816		-57.275146		-9.771244		-5.893086		24.824679		61.240691		-9.428937		-5.731384		-62.469947		-9.400676		0.950100		26.011990		-36.481896		-1.085472		1.078531		16.864629		-3.127000		3.310537		52.723330		-16.579313		18.311893		69.861298		113.785077		0.262081		9.104953		29.097258		52.426395		-23.820179		12.286402		76.943576		108.388105		-1.731365		8.612395		22.512739		
0.691768		1.409525		-17.780599		86.804924		0.022644		1.844640		1.154253		56.263918		5.099375		-1.380482		-55.961991		-9.766038		-5.594150		24.231493		60.653812		-9.464742		-5.642916		-61.346002		-9.932829		1.028870		25.921146		-36.775093		-0.850065		1.087734		16.819058		-3.401361		3.462355		50.986863		-17.137113		18.387327		69.227954		114.338451		-0.039777		8.987505		28.647869		50.024531		-24.006268		11.170062		76.972422		109.357244		-1.277886		8.081168		23.233942		
0.696288		1.460144		-17.569955		86.830498		0.022154		1.837541		1.145234		55.928979		5.056634		-1.433873		-54.729527		-9.897141		-5.421519		23.919278		60.190752		-9.424964		-5.609481		-60.201704		-10.270959		1.141282		25.873873		-36.857593		-0.773604		1.130915		16.547185		-3.453635		3.493175		49.095651		-17.825335		18.326684		68.690274		114.497361		-0.126230		9.010512		28.478624		47.850103		-24.335325		10.698145		76.893583		109.703009		-1.089946		7.838398		23.563995		
0.700808		1.481687		-17.288496		86.808996		0.021805		1.830191		1.135957		55.538735		5.030394		-1.447625		-53.607287		-10.216402		-5.296440		23.696321		59.663376		-9.452506		-5.672192		-59.144337		-10.868347		1.381935		25.835177		-36.975197		-0.758094		1.171834		16.148930		-3.476220		3.411525		46.955905		-18.294977		17.819512		68.220735		114.493461		-0.357374		9.074841		28.307310		45.513967		-24.436638		9.887630		76.743617		109.594720		-1.271540		7.510878		23.639834		
0.705328		1.499847		-17.071182		86.790517		0.021330		1.822534		1.126815		55.175171		5.009874		-1.435437		-52.412536		-10.469077		-5.226683		23.547135		59.142958		-9.422868		-5.684514		-57.970707		-11.211318		1.514966		25.810078		-37.016997		-0.736689		1.239064		15.802936		-3.505323		3.398992		44.992414		-18.971998		17.651765		67.673642		114.590254		-0.445932		9.187359		28.193484		43.339218		-24.729471		9.487072		76.622342		109.521384		-1.287164		7.290889		23.721605		
0.709848		1.546177		-16.707448		86.752757		0.020887		1.814850		1.117480		54.668388		5.021947		-1.436437		-51.302923		-10.827647		-5.155987		23.325818		58.475237		-9.462465		-5.733730		-56.869161		-11.723922		1.699050		25.770857		-37.208479		-0.687638		1.276815		15.474165		-3.596391		3.398899		42.993382		-19.448082		17.289968		67.054707		114.768893		-0.665137		9.268452		27.923771		40.980072		-24.819472		8.566933		76.474855		109.376597		-1.399252		6.866002		23.809045		
